<svg width="40" height="40" viewBox="0 0 40 40" fill="none" xmlns="http://www.w3.org/2000/svg">
    <path
        d="M20 0C8.98936 0 0 8.98936 0 20C0 31.0106 8.98936 40 20 40C31.0106 40 40 31.0106 40 20C40 8.98936 31.0106 0 20 0ZM29.2553 22.1277H22.3404V29.0426C22.3404 30.2128 21.383 31.1702 20.2128 31.1702C19.0426 31.1702 18.0851 30.2128 18.0851 29.0426V22.1277H11.1702C10 22.1277 9.04255 21.1702 9.04255 20C9.04255 18.8298 10 17.8723 11.1702 17.8723H18.0851V10.9574C18.0851 9.78723 19.0426 8.82979 20.2128 8.82979C21.383 8.82979 22.3404 9.78723 22.3404 10.9574V17.8723H29.2553C30.4255 17.8723 31.383 18.8298 31.383 20C31.383 21.1702 30.4255 22.1277 29.2553 22.1277Z"
        fill="current-color" />
</svg>