<svg width="49" height="54" viewBox="0 0 49 54" fill="none" xmlns="http://www.w3.org/2000/svg">
    <path
        d="M47.9921 22.8516L25.7121 0.581585C25.3373 0.209084 24.8304 0 24.3021 0C23.7737 0 23.2668 0.209084 22.8921 0.581585L0.612054 22.8516C0.324865 23.1284 0.127005 23.4848 0.0438959 23.8749C-0.0392128 24.265 -0.00377329 24.671 0.145661 25.0409C0.295095 25.4107 0.551698 25.7274 0.882497 25.9503C1.2133 26.1731 1.60318 26.292 2.00205 26.2916H12.0021V51.5916C12.0021 52.122 12.2128 52.6307 12.5878 53.0058C12.9629 53.3809 13.4716 53.5916 14.0021 53.5916H35.7221C36.2525 53.5916 36.7612 53.3809 37.1363 53.0058C37.5113 52.6307 37.7221 52.122 37.7221 51.5916V26.2916H46.6021C46.8211 26.2925 47.0382 26.2517 47.2421 26.1716C47.5646 26.0608 47.8535 25.8693 48.0812 25.6154C48.309 25.3614 48.468 25.0535 48.5431 24.7208C48.6183 24.3881 48.6071 24.0417 48.5106 23.7145C48.4142 23.3874 48.2357 23.0903 47.9921 22.8516Z"
        fill="current" />
</svg>