<svg width="40" height="40" viewBox="0 0 40 40" fill="none" xmlns="http://www.w3.org/2000/svg">
    <path fill-rule="evenodd" clip-rule="evenodd"
        d="M15.2382 39.0476C15.2382 39.3 15.1382 39.5429 14.9592 39.721C14.7811 39.9 14.5382 40 14.2858 40C12.0525 40 6.66678 40 6.66678 40C5.08869 40 3.80964 38.721 3.80964 37.1429C3.80964 32.0924 3.80964 23.8095 3.80964 23.8095C3.80964 23.2838 3.38297 22.8571 2.85726 22.8571C1.70202 22.8571 0.660117 22.1609 0.21726 21.0933C-0.224645 20.0257 0.0201182 18.7971 0.837261 17.98L17.9801 0.837143C19.0954 -0.279048 20.9049 -0.279048 22.0201 0.837143L39.163 17.98C39.9801 18.7971 40.2249 20.0257 39.783 21.0933C39.3401 22.1609 38.2982 22.8571 37.143 22.8571C36.6173 22.8571 36.1906 23.2838 36.1906 23.8095C36.1906 23.8095 36.1906 32.0924 36.1906 37.1429C36.1906 38.721 34.9115 40 33.3334 40C33.3334 40 27.9477 40 25.7144 40C25.1887 40 24.762 39.5733 24.762 39.0476C24.762 36.5933 24.762 30.0733 24.762 27.619C24.762 27.0933 24.3354 26.6667 23.8096 26.6667C21.9849 26.6667 18.0154 26.6667 16.1906 26.6667C15.6649 26.6667 15.2382 27.0933 15.2382 27.619C15.2382 30.0733 15.2382 36.5933 15.2382 39.0476Z"
        fill="white" />
</svg>