<svg width="90" height="86" viewBox="0 0 90 86" fill="none" xmlns="http://www.w3.org/2000/svg">
    <mask id="path-1-inside-1_2_156" fill="white">
        <path fill-rule="evenodd" clip-rule="evenodd"
            d="M45 8.668C49.874 3.192 56.868 0 64.253 0C78.45 0 90 11.55 90 25.747C90 48.256 48.294 83.346 46.517 84.828C46.506 84.8365 46.4947 84.8438 46.4835 84.851C46.4722 84.8582 46.461 84.8655 46.45 84.874C46.4061 84.9093 46.3603 84.9392 46.3137 84.9697L46.307 84.974C46.222 85.031 46.135 85.082 46.044 85.127C45.994 85.151 45.944 85.175 45.893 85.196C45.793 85.237 45.69 85.269 45.586 85.296L45.5689 85.3008L45.5478 85.3068C45.5168 85.3157 45.4859 85.3246 45.454 85.331C45.304 85.36 45.153 85.379 45.001 85.379H44.999C44.843 85.379 44.688 85.36 44.535 85.329C44.5048 85.3231 44.4758 85.3146 44.4468 85.306C44.4316 85.3016 44.4164 85.2971 44.401 85.293C44.294 85.265 44.189 85.231 44.086 85.188C44.034 85.166 43.984 85.142 43.933 85.116C43.841 85.069 43.751 85.015 43.664 84.955L43.6493 84.9449C43.6061 84.9153 43.5623 84.8852 43.521 84.852C43.5102 84.8435 43.499 84.8362 43.4879 84.8289C43.4839 84.8263 43.48 84.8237 43.4761 84.821C43.4664 84.8146 43.457 84.8078 43.448 84.8C42.338 83.837 16.135 60.99 4.987 41.101C1.678 35.198 0 30.032 0 25.747C0 11.55 11.55 0 25.747 0C33.132 0 40.126 3.192 45 8.668ZM38.2557 37.9494C41.4536 37.1588 43.1174 32.7573 41.9728 28.108C40.8282 23.4587 37.2527 20.3316 34.1256 21.1222C30.9986 21.9129 29.2757 26.338 30.4086 30.9519C31.5414 35.5658 35.0697 38.7282 38.2557 37.9494ZM60.5465 39.6015C62.4109 36.3564 65.715 34.787 67.9334 36.0614C70.1401 37.3359 70.4351 40.9703 68.5706 44.2154C66.7062 47.4605 63.4021 49.0417 61.1837 47.7555C58.9652 46.4693 58.682 42.8466 60.5465 39.6015ZM21.8652 36.0614C19.6586 37.3358 19.3636 40.9939 21.228 44.2154C23.0925 47.4368 26.3965 49.0181 28.615 47.7555C30.8334 46.4928 31.1166 42.8229 29.2522 39.6015C27.3878 36.38 24.0837 34.787 21.8652 36.0614ZM55.2953 48.7585C54.5216 46.6222 53.1086 44.7761 51.2484 43.4714C49.3883 42.1668 47.1714 41.4668 44.8993 41.4668C42.6272 41.4668 40.4103 42.1668 38.5502 43.4714C36.69 44.7761 35.277 46.6222 34.5033 48.7585C33.9907 50.0433 33.371 51.2828 32.6506 52.4638C31.8844 53.7445 31.4769 55.2077 31.4706 56.7001C31.4706 62.4586 37.4769 64.7596 44.8875 64.7596C52.2981 64.7596 58.3044 62.3996 58.3044 56.7001C58.2982 55.2077 57.8906 53.7445 57.1244 52.4638C56.4122 51.282 55.8003 50.0425 55.2953 48.7585ZM59.39 30.9519C58.2454 35.5894 54.7289 38.7283 51.5428 37.9495C48.345 37.1588 46.6811 32.7338 47.8258 28.1081C48.9704 23.4823 52.4751 20.3435 55.6729 21.1223C58.8708 21.9011 60.5346 26.3144 59.39 30.9519Z" />
    </mask>
    <path fill-rule="evenodd" clip-rule="evenodd"
        d="M45 8.668C49.874 3.192 56.868 0 64.253 0C78.45 0 90 11.55 90 25.747C90 48.256 48.294 83.346 46.517 84.828C46.506 84.8365 46.4947 84.8438 46.4835 84.851C46.4722 84.8582 46.461 84.8655 46.45 84.874C46.4061 84.9093 46.3603 84.9392 46.3137 84.9697L46.307 84.974C46.222 85.031 46.135 85.082 46.044 85.127C45.994 85.151 45.944 85.175 45.893 85.196C45.793 85.237 45.69 85.269 45.586 85.296L45.5689 85.3008L45.5478 85.3068C45.5168 85.3157 45.4859 85.3246 45.454 85.331C45.304 85.36 45.153 85.379 45.001 85.379H44.999C44.843 85.379 44.688 85.36 44.535 85.329C44.5048 85.3231 44.4758 85.3146 44.4468 85.306C44.4316 85.3016 44.4164 85.2971 44.401 85.293C44.294 85.265 44.189 85.231 44.086 85.188C44.034 85.166 43.984 85.142 43.933 85.116C43.841 85.069 43.751 85.015 43.664 84.955L43.6493 84.9449C43.6061 84.9153 43.5623 84.8852 43.521 84.852C43.5102 84.8435 43.499 84.8362 43.4879 84.8289C43.4839 84.8263 43.48 84.8237 43.4761 84.821C43.4664 84.8146 43.457 84.8078 43.448 84.8C42.338 83.837 16.135 60.99 4.987 41.101C1.678 35.198 0 30.032 0 25.747C0 11.55 11.55 0 25.747 0C33.132 0 40.126 3.192 45 8.668ZM38.2557 37.9494C41.4536 37.1588 43.1174 32.7573 41.9728 28.108C40.8282 23.4587 37.2527 20.3316 34.1256 21.1222C30.9986 21.9129 29.2757 26.338 30.4086 30.9519C31.5414 35.5658 35.0697 38.7282 38.2557 37.9494ZM60.5465 39.6015C62.4109 36.3564 65.715 34.787 67.9334 36.0614C70.1401 37.3359 70.4351 40.9703 68.5706 44.2154C66.7062 47.4605 63.4021 49.0417 61.1837 47.7555C58.9652 46.4693 58.682 42.8466 60.5465 39.6015ZM21.8652 36.0614C19.6586 37.3358 19.3636 40.9939 21.228 44.2154C23.0925 47.4368 26.3965 49.0181 28.615 47.7555C30.8334 46.4928 31.1166 42.8229 29.2522 39.6015C27.3878 36.38 24.0837 34.787 21.8652 36.0614ZM55.2953 48.7585C54.5216 46.6222 53.1086 44.7761 51.2484 43.4714C49.3883 42.1668 47.1714 41.4668 44.8993 41.4668C42.6272 41.4668 40.4103 42.1668 38.5502 43.4714C36.69 44.7761 35.277 46.6222 34.5033 48.7585C33.9907 50.0433 33.371 51.2828 32.6506 52.4638C31.8844 53.7445 31.4769 55.2077 31.4706 56.7001C31.4706 62.4586 37.4769 64.7596 44.8875 64.7596C52.2981 64.7596 58.3044 62.3996 58.3044 56.7001C58.2982 55.2077 57.8906 53.7445 57.1244 52.4638C56.4122 51.282 55.8003 50.0425 55.2953 48.7585ZM59.39 30.9519C58.2454 35.5894 54.7289 38.7283 51.5428 37.9495C48.345 37.1588 46.6811 32.7338 47.8258 28.1081C48.9704 23.4823 52.4751 20.3435 55.6729 21.1223C58.8708 21.9011 60.5346 26.3144 59.39 30.9519Z"
        fill="#E43A6D" />
    <path
        d="M45 8.668L44.253 9.33285L45 10.1721L45.747 9.33285L45 8.668ZM46.517 84.828L47.1284 85.6194L47.1431 85.6079L47.1575 85.596L46.517 84.828ZM46.45 84.874L45.8385 84.0827L45.8308 84.0887L45.8232 84.0948L46.45 84.874ZM46.3137 84.9697L45.7671 84.1322L45.7667 84.1325L46.3137 84.9697ZM46.307 84.974L45.76 84.1368L45.75 84.1435L46.307 84.974ZM46.044 85.127L46.4768 86.0286L46.4873 86.0234L46.044 85.127ZM45.893 85.196L46.2724 86.1212L46.2738 86.1207L45.893 85.196ZM45.586 85.296L45.3347 84.3281L45.326 84.3303L45.3174 84.3328L45.586 85.296ZM45.5689 85.3008L45.3003 84.3375L45.2937 84.3394L45.5689 85.3008ZM45.5478 85.3068L45.2727 84.3454L45.2712 84.3458L45.5478 85.3068ZM45.454 85.331L45.6438 86.3128L45.6501 86.3116L45.454 85.331ZM44.535 85.329L44.7336 84.3489L44.7271 84.3476L44.535 85.329ZM44.4468 85.306L44.1646 86.2654L44.1647 86.2654L44.4468 85.306ZM44.401 85.293L44.6587 84.3268L44.6542 84.3256L44.401 85.293ZM44.086 85.188L43.6963 86.109L43.7008 86.1108L44.086 85.188ZM43.933 85.116L43.4781 86.0065L43.4788 86.0069L43.933 85.116ZM43.664 84.955L44.2317 84.1318L44.2297 84.1304L43.664 84.955ZM43.6493 84.9449L44.2151 84.1204L44.2151 84.1204L43.6493 84.9449ZM43.521 84.852L44.1478 84.0728L44.1416 84.0679L43.521 84.852ZM43.4879 84.8289L44.0358 83.9923L44.0355 83.9921L43.4879 84.8289ZM43.4761 84.821L42.918 85.6509L42.9184 85.6511L43.4761 84.821ZM43.448 84.8L44.1041 84.0453L44.1033 84.0446L43.448 84.8ZM4.987 41.101L5.85932 40.6121L5.8593 40.612L4.987 41.101ZM41.9728 28.108L41.0018 28.3471L41.0018 28.3471L41.9728 28.108ZM38.2557 37.9494L38.4932 38.9208L38.4957 38.9202L38.2557 37.9494ZM34.1256 21.1222L33.8805 20.1528L33.8805 20.1528L34.1256 21.1222ZM30.4086 30.9519L31.3797 30.7134L31.3797 30.7134L30.4086 30.9519ZM67.9334 36.0614L68.4336 35.1955L68.4316 35.1943L67.9334 36.0614ZM68.5706 44.2154L67.7036 43.7172L67.7036 43.7172L68.5706 44.2154ZM21.8652 36.0614L21.3671 35.1943L21.3651 35.1954L21.8652 36.0614ZM28.615 47.7555L28.1203 46.8864L28.1203 46.8864L28.615 47.7555ZM29.2522 39.6015L28.3867 40.1024L28.3867 40.1024L29.2522 39.6015ZM51.2484 43.4714L51.8227 42.6527L51.8227 42.6527L51.2484 43.4714ZM55.2953 48.7585L54.3551 49.099L54.3597 49.1118L54.3647 49.1245L55.2953 48.7585ZM38.5502 43.4714L37.9759 42.6527L37.9759 42.6527L38.5502 43.4714ZM34.5033 48.7585L35.4321 49.129L35.438 49.1141L35.4435 49.099L34.5033 48.7585ZM32.6506 52.4638L31.7969 51.943L31.7925 51.9504L32.6506 52.4638ZM31.4706 56.7001L30.4706 56.6959V56.7001H31.4706ZM58.3044 56.7001L59.3044 56.7001L59.3044 56.6959L58.3044 56.7001ZM57.1244 52.4638L57.9825 51.9504L57.9809 51.9476L57.1244 52.4638ZM51.5428 37.9495L51.3028 38.9202L51.3054 38.9209L51.5428 37.9495ZM59.39 30.9519L58.4192 30.7123L58.4191 30.7123L59.39 30.9519ZM55.6729 21.1223L55.4363 22.0939L55.4363 22.0939L55.6729 21.1223ZM64.253 -1C56.5787 -1 49.3142 2.31686 44.253 8.00314L45.747 9.33285C50.4338 4.06714 57.1573 1 64.253 1V-1ZM91 25.747C91 10.9977 79.0023 -1 64.253 -1V1C77.8977 1 89 12.1023 89 25.747H91ZM47.1575 85.596C48.0603 84.843 58.972 75.6655 69.6665 63.8435C75.0128 57.9334 80.327 51.3384 84.3102 44.7854C88.2786 38.2568 91 31.651 91 25.747H89C89 31.0975 86.5082 37.3189 82.6011 43.7466C78.7089 50.15 73.4856 56.6404 68.1833 62.5018C57.5805 74.2225 46.7507 83.331 45.8765 84.06L47.1575 85.596ZM47.0251 85.6916C47.0314 85.6876 47.0782 85.6581 47.1284 85.6194L45.9056 84.0366C45.9216 84.0243 45.9342 84.0156 45.9404 84.0114C45.9454 84.0081 45.949 84.0058 45.9419 84.0104L47.0251 85.6916ZM47.0615 85.6653C47.0456 85.6775 47.033 85.6862 47.0268 85.6904C47.0218 85.6938 47.0182 85.6961 47.0251 85.6916L45.9419 84.0104C45.9353 84.0146 45.8886 84.044 45.8385 84.0827L47.0615 85.6653ZM46.8602 85.8071C46.9007 85.7807 46.988 85.7246 47.0768 85.6532L45.8232 84.0948C45.826 84.0926 45.8246 84.0939 45.8154 84.1003C45.8047 84.1076 45.7922 84.1158 45.7671 84.1322L46.8602 85.8071ZM46.8539 85.8112L46.8606 85.8068L45.7667 84.1325L45.7601 84.1368L46.8539 85.8112ZM46.4873 86.0234C46.6208 85.9574 46.7457 85.8839 46.864 85.8045L45.75 84.1435C45.6983 84.1781 45.6492 84.2066 45.6007 84.2306L46.4873 86.0234ZM46.2738 86.1207C46.3555 86.087 46.431 86.0505 46.4768 86.0285L45.6112 84.2255C45.557 84.2515 45.5325 84.263 45.5122 84.2713L46.2738 86.1207ZM45.8373 86.2639C45.9709 86.2292 46.1192 86.1841 46.2724 86.1212L45.5136 84.2708C45.4668 84.2899 45.4091 84.3088 45.3347 84.3281L45.8373 86.2639ZM45.8375 86.264L45.8546 86.2593L45.3174 84.3328L45.3003 84.3375L45.8375 86.264ZM45.823 86.2682L45.844 86.2622L45.2937 84.3394L45.2727 84.3454L45.823 86.2682ZM45.6501 86.3116C45.7293 86.2957 45.7997 86.2749 45.8244 86.2678L45.2712 84.3458C45.2631 84.3482 45.2579 84.3497 45.2531 84.351C45.2485 84.3523 45.2461 84.353 45.2449 84.3533C45.2422 84.354 45.2476 84.3525 45.2579 84.3504L45.6501 86.3116ZM45.001 86.379C45.2352 86.379 45.4525 86.3498 45.6438 86.3128L45.2642 84.3492C45.1555 84.3702 45.0708 84.379 45.001 84.379V86.379ZM44.999 86.379H45.001V84.379H44.999V86.379ZM44.3364 86.3091C44.5394 86.3502 44.7623 86.379 44.999 86.379V84.379C44.9237 84.379 44.8366 84.3698 44.7336 84.3489L44.3364 86.3091ZM44.1647 86.2654C44.187 86.272 44.2598 86.2941 44.3429 86.3104L44.7271 84.3476C44.7343 84.349 44.74 84.3503 44.7438 84.3512C44.7475 84.3521 44.7497 84.3527 44.7499 84.3527C44.7499 84.3528 44.7486 84.3524 44.7449 84.3513C44.741 84.3502 44.7365 84.3489 44.7288 84.3466L44.1647 86.2654ZM44.1433 86.2592C44.1431 86.2592 44.1443 86.2595 44.148 86.2606C44.1521 86.2617 44.1566 86.263 44.1646 86.2654L44.7289 84.3466C44.7156 84.3427 44.6884 84.3347 44.6587 84.3268L44.1433 86.2592ZM43.7008 86.1108C43.8539 86.1748 44.0041 86.2228 44.1478 86.2604L44.6542 84.3256C44.5839 84.3072 44.5241 84.2872 44.4712 84.2652L43.7008 86.1108ZM43.4788 86.0069C43.5435 86.0399 43.6159 86.0749 43.6963 86.1089L44.4757 84.2671C44.4521 84.2571 44.4245 84.2441 44.3872 84.2251L43.4788 86.0069ZM43.0963 85.7782C43.2176 85.8619 43.3451 85.9386 43.4781 86.0065L44.3879 84.2255C44.3369 84.1994 44.2844 84.1681 44.2317 84.1318L43.0963 85.7782ZM43.0836 85.7695L43.0983 85.7796L44.2297 84.1304L44.2151 84.1204L43.0836 85.7695ZM42.8943 85.6312C42.9701 85.6923 43.0455 85.7434 43.0836 85.7695L44.2151 84.1204C44.1666 84.0871 44.1545 84.0782 44.1477 84.0728L42.8943 85.6312ZM42.94 85.6654C42.9471 85.67 42.9431 85.6675 42.9376 85.6637C42.931 85.6592 42.9175 85.6496 42.9004 85.6361L44.1416 84.0679C44.0901 84.0271 44.0415 83.9961 44.0358 83.9923L42.94 85.6654ZM42.9184 85.6511C42.9283 85.6577 42.9376 85.6638 42.9403 85.6656L44.0355 83.9921C44.0331 83.9906 44.0325 83.9901 44.0319 83.9898C44.0315 83.9895 44.0323 83.99 44.0337 83.991L42.9184 85.6511ZM42.7919 85.5547C42.8462 85.6019 42.8946 85.6351 42.918 85.6509L44.0341 83.9912C44.0383 83.994 44.0677 84.0137 44.1041 84.0453L42.7919 85.5547ZM4.11468 41.5899C9.75492 51.6526 19.1684 62.4128 27.2646 70.7446C35.3746 79.0907 42.2259 85.0637 42.7927 85.5554L44.1033 84.0446C43.5601 83.5733 36.7549 77.6413 28.6989 69.3509C20.6291 61.0462 11.3671 50.4384 5.85932 40.6121L4.11468 41.5899ZM-1 25.747C-1 30.2749 0.765863 35.6159 4.1147 41.59L5.8593 40.612C2.59014 34.7801 1 29.7891 1 25.747H-1ZM25.747 -1C10.9977 -1 -1 10.9977 -1 25.747H1C1 12.1023 12.1023 1 25.747 1V-1ZM45.747 8.00314C40.6858 2.31686 33.4213 -1 25.747 -1V1C32.8427 1 39.5662 4.06714 44.253 9.33285L45.747 8.00314ZM41.0018 28.3471C41.532 30.5006 41.3996 32.5544 40.8072 34.1223C40.2131 35.695 39.2041 36.6848 38.0157 36.9786L38.4957 38.9202C40.5052 38.4234 41.9271 36.8172 42.6782 34.8291C43.4311 32.8363 43.5583 30.3647 42.9438 27.8689L41.0018 28.3471ZM34.3708 22.0917C35.5154 21.8023 36.8624 22.2019 38.1298 23.3239C39.3894 24.4391 40.4726 26.1976 41.0018 28.3471L42.9438 27.8689C42.3284 25.3691 41.0516 23.2395 39.4555 21.8264C37.8672 20.4203 35.8629 19.6515 33.8805 20.1528L34.3708 22.0917ZM31.3797 30.7134C30.8569 28.5838 31.0035 26.5333 31.6039 24.9599C32.2082 23.3763 33.2191 22.3829 34.3708 22.0917L33.8805 20.1528C31.9051 20.6522 30.491 22.2666 29.7354 24.2468C28.9758 26.237 28.8274 28.706 29.4374 31.1903L31.3797 30.7134ZM38.0183 36.978C36.8405 37.2659 35.4882 36.8523 34.2283 35.7271C32.9739 34.6067 31.9037 32.8477 31.3797 30.7134L29.4374 31.1903C30.0462 33.6699 31.3066 35.7991 32.896 37.2187C34.4801 38.6335 36.4849 39.4117 38.4932 38.9208L38.0183 36.978ZM68.4316 35.1943C66.956 34.3467 65.2132 34.4997 63.676 35.2344C62.1342 35.9713 60.6994 37.3281 59.6794 39.1033L61.4136 40.0997C62.258 38.6299 63.4075 37.5794 64.5384 37.0389C65.674 36.4962 66.6924 36.5018 67.4353 36.9285L68.4316 35.1943ZM69.4377 44.7136C70.4569 42.9397 70.91 41.0206 70.7756 39.3206C70.6416 37.6257 69.9036 36.0445 68.4336 35.1955L67.4333 36.9274C68.1699 37.3528 68.6828 38.226 68.7818 39.4783C68.8804 40.7254 68.5488 42.246 67.7036 43.7172L69.4377 44.7136ZM60.6821 48.6206C62.1592 49.477 63.9044 49.3231 65.4419 48.5866C66.9838 47.848 68.4182 46.4882 69.4377 44.7136L67.7036 43.7172C66.8587 45.1877 65.7088 46.2411 64.5779 46.7828C63.4427 47.3266 62.4266 47.3202 61.6853 46.8904L60.6821 48.6206ZM59.6794 39.1033C58.661 40.8758 58.2042 42.7916 58.337 44.491C58.4696 46.1869 59.2086 47.7663 60.6821 48.6206L61.6853 46.8904C60.9403 46.4584 60.4285 45.5834 60.331 44.3351C60.2337 43.0904 60.5675 41.5723 61.4136 40.0997L59.6794 39.1033ZM22.0935 43.7145C21.2502 42.2574 20.9182 40.7377 21.0169 39.4869C21.1161 38.2296 21.6303 37.3519 22.3654 36.9274L21.3651 35.1954C19.8936 36.0453 19.1569 37.6338 19.0231 39.3296C18.8887 41.0318 19.3414 42.9519 20.3625 44.7163L22.0935 43.7145ZM28.1203 46.8864C27.3786 47.3085 26.3592 47.3104 25.2208 46.7651C24.0878 46.2224 22.9377 45.1732 22.0935 43.7145L20.3625 44.7163C21.3827 46.4791 22.817 47.8312 24.3567 48.5688C25.8911 49.3038 27.6329 49.465 29.1096 48.6245L28.1203 46.8864ZM28.3867 40.1024C29.2304 41.5601 29.5652 43.0832 29.4677 44.3354C29.3697 45.5942 28.8558 46.4677 28.1203 46.8864L29.1096 48.6246C30.5926 47.7805 31.3295 46.1878 31.4617 44.4906C31.5943 42.7869 31.1385 40.8643 30.1177 39.1006L28.3867 40.1024ZM22.3634 36.9285C23.1035 36.5033 24.1205 36.5005 25.2586 37.047C26.3916 37.5909 27.5421 38.643 28.3867 40.1024L30.1177 39.1006C29.0979 37.3385 27.6641 35.9833 26.1243 35.244C24.5897 34.5072 22.8455 34.345 21.3671 35.1943L22.3634 36.9285ZM50.6742 44.2901C52.3661 45.4768 53.6514 47.1559 54.3551 49.099L56.2356 48.418C55.3919 46.0885 53.851 44.0754 51.8227 42.6527L50.6742 44.2901ZM44.8993 42.4668C46.9659 42.4668 48.9823 43.1035 50.6742 44.2901L51.8227 42.6527C49.7943 41.2301 47.3769 40.4668 44.8993 40.4668V42.4668ZM39.1244 44.2901C40.8163 43.1035 42.8327 42.4668 44.8993 42.4668V40.4668C42.4217 40.4668 40.0043 41.2301 37.9759 42.6527L39.1244 44.2901ZM35.4435 49.099C36.1472 47.1559 37.4325 45.4768 39.1244 44.2901L37.9759 42.6527C35.9476 44.0754 34.4067 46.0885 33.563 48.418L35.4435 49.099ZM33.5044 52.9845C34.2539 51.7556 34.8987 50.466 35.4321 49.129L33.5745 48.3879C33.0826 49.6207 32.488 50.8099 31.7969 51.943L33.5044 52.9845ZM32.4706 56.7042C32.4761 55.3913 32.8347 54.1039 33.5088 52.9772L31.7925 51.9504C30.9342 53.385 30.4776 55.0241 30.4706 56.6959L32.4706 56.7042ZM44.8875 63.7596C41.2595 63.7596 38.0928 63.1922 35.8707 62.007C33.7056 60.852 32.4706 59.1436 32.4706 56.7001H30.4706C30.4706 60.015 32.2388 62.3364 34.9295 63.7716C37.5632 65.1765 41.105 65.7596 44.8875 65.7596V63.7596ZM57.3044 56.7001C57.3044 59.1115 56.072 60.822 53.9022 61.986C51.6792 63.1785 48.5121 63.7596 44.8875 63.7596V65.7596C48.6735 65.7596 52.2148 65.1607 54.8476 63.7484C57.5337 62.3075 59.3044 59.9881 59.3044 56.7001H57.3044ZM56.2662 52.9772C56.9403 54.1039 57.2989 55.3913 57.3044 56.7042L59.3044 56.6959C59.2974 55.0241 58.8408 53.385 57.9825 51.9504L56.2662 52.9772ZM54.3647 49.1245C54.8902 50.4606 55.5268 51.7503 56.2679 52.9799L57.9809 51.9476C57.2975 50.8137 56.7105 49.6245 56.226 48.3925L54.3647 49.1245ZM51.3054 38.9209C53.3116 39.4113 55.3133 38.6413 56.8976 37.2281C58.4866 35.8107 59.7464 33.6813 60.3609 31.1915L58.4191 30.7123C57.889 32.86 56.8183 34.6188 55.5663 35.7356C54.3097 36.8565 52.9601 37.2665 51.7803 36.9781L51.3054 38.9209ZM46.855 27.8678C46.24 30.3532 46.3678 32.8249 47.1202 34.8198C47.8705 36.809 49.2916 38.423 51.3028 38.9202L51.7828 36.9787C50.5963 36.6853 49.5865 35.6914 48.9915 34.114C48.3987 32.5423 48.2669 30.4886 48.7965 28.3483L46.855 27.8678ZM55.9096 20.1507C53.8987 19.661 51.8974 20.4298 50.3138 21.8422C48.7261 23.2582 47.4695 25.3846 46.855 27.8678L48.7965 28.3483C49.3266 26.2058 50.3947 24.4499 51.645 23.3348C52.8993 22.216 54.2493 21.8048 55.4363 22.0939L55.9096 20.1507ZM60.3609 31.1915C60.9756 28.7011 60.8482 26.2293 60.0954 24.2367C59.3446 22.2493 57.9221 20.6408 55.9096 20.1507L55.4363 22.0939C56.6216 22.3826 57.63 23.3701 58.2244 24.9435C58.8169 26.5116 58.9491 28.5653 58.4192 30.7123L60.3609 31.1915Z"
        fill="#E43A6D" mask="url(#path-1-inside-1_2_156)" />
</svg>