<svg width="106" height="100" viewBox="0 0 106 100" fill="none" xmlns="http://www.w3.org/2000/svg">
    <path
        d="M75.4715 0.85083C67.0903 0.85083 59.1433 4.38937 53.5104 10.4813C52.4239 9.53601 51.2699 8.66639 50.0565 7.88062C44.7207 3.39421 37.9273 0.85083 30.8217 0.85083C14.3595 0.85083 0.966614 14.2172 0.966614 30.6468C0.966614 35.6056 2.91235 41.584 6.74931 48.4153C19.676 71.432 50.0598 97.8719 51.347 98.9863C51.3616 98.999 51.3773 99.0093 51.3932 99.0197C51.4 99.0241 51.4069 99.0286 51.4137 99.0333C51.4197 99.0375 51.4257 99.0418 51.4316 99.0465C51.4795 99.085 51.5303 99.1197 51.5805 99.1541L51.5974 99.1657C51.6983 99.2351 51.8027 99.2976 51.9093 99.352C51.9685 99.3821 52.0264 99.4099 52.0867 99.4353C52.2062 99.4851 52.3279 99.5244 52.452 99.5568C52.4698 99.5616 52.4872 99.5667 52.5047 99.5718L52.5335 99.5802C52.5463 99.5838 52.5592 99.5874 52.5721 99.5906C52.5837 99.5935 52.5955 99.5962 52.6074 99.5985C52.7848 99.6344 52.9645 99.6564 53.1454 99.6564H53.1477C53.324 99.6564 53.4991 99.6344 53.673 99.6008C53.6873 99.598 53.7014 99.5947 53.7154 99.5911C53.729 99.5877 53.7425 99.584 53.7559 99.5802C53.7645 99.5778 53.773 99.5753 53.7816 99.5729C53.7963 99.5686 53.8112 99.5644 53.8261 99.5603C53.9467 99.5291 54.0661 99.492 54.1821 99.4446C54.2412 99.4203 54.2992 99.3925 54.3572 99.3647C54.4627 99.3127 54.5636 99.2536 54.6621 99.1877L54.6699 99.1826C54.724 99.1474 54.7771 99.1128 54.8279 99.072C54.8428 99.0604 54.8582 99.0509 54.8734 99.0411C54.8842 99.0341 54.895 99.0269 54.9056 99.0187C56.9661 97.3037 105.327 56.6955 105.327 30.6468C105.327 14.2172 91.9337 0.85083 75.4715 0.85083Z"
        fill="#E43A6D" />
</svg>