<svg width="106" height="100" viewBox="0 0 106 100" fill="none" xmlns="http://www.w3.org/2000/svg">
    <path
        d="M75.4715 0.85083C66.9082 0.85083 58.7982 4.5448 53.1466 10.8819C47.4949 4.5448 39.385 0.85083 30.8217 0.85083C14.3595 0.85083 0.966614 14.2172 0.966614 30.6468C0.966614 35.6056 2.91235 41.584 6.74931 48.4153C19.676 71.432 50.0598 97.8719 51.3469 98.9863C51.3736 99.0095 51.4038 99.0245 51.4316 99.0465C51.4849 99.0893 51.5418 99.1275 51.5974 99.1657C51.6983 99.2351 51.8027 99.2976 51.9093 99.352C51.9685 99.3821 52.0264 99.4099 52.0867 99.4353C52.2062 99.4851 52.3279 99.5244 52.452 99.5568C52.5042 99.5707 52.554 99.5881 52.6074 99.5985C52.7848 99.6344 52.9645 99.6564 53.1454 99.6564H53.1477C53.324 99.6564 53.4991 99.6344 53.673 99.6008C53.7252 99.5904 53.7751 99.5742 53.8261 99.5603C53.9467 99.5291 54.0661 99.492 54.1821 99.4446C54.2412 99.4203 54.2992 99.3925 54.3571 99.3647C54.4627 99.3127 54.5636 99.2536 54.6621 99.1877C54.7189 99.1506 54.7746 99.1148 54.8279 99.0719C54.8534 99.0523 54.8801 99.0384 54.9056 99.0187C56.9661 97.3037 105.327 56.6955 105.327 30.6468C105.327 14.2172 91.9337 0.85083 75.4715 0.85083ZM53.179 93.2764C46.4675 87.2494 22.2676 64.8356 11.5406 45.7351C8.16861 39.7335 6.45943 34.6567 6.45943 30.6479C6.45943 17.2411 17.3882 6.33392 30.8217 6.33392C38.8029 6.33392 46.3052 10.2721 50.8901 16.8684C50.9283 16.9228 50.9759 16.9656 51.0176 17.0177C51.0779 17.0929 51.1371 17.1693 51.2066 17.2388C51.282 17.314 51.3643 17.3776 51.4455 17.4424C51.4919 17.4795 51.5313 17.5234 51.5812 17.5582C51.5951 17.5674 51.6102 17.5732 51.6241 17.5825C51.7157 17.6438 51.8119 17.6913 51.9105 17.741C51.9766 17.7746 52.0415 17.8139 52.1088 17.8417C52.1957 17.8764 52.285 17.8996 52.3743 17.925C52.4566 17.9493 52.5378 17.9783 52.6225 17.9945C52.7071 18.0107 52.7929 18.0141 52.8787 18.0222C52.968 18.0303 53.0561 18.0442 53.1454 18.0442C53.2347 18.0442 53.324 18.0303 53.4133 18.0222C53.4991 18.0141 53.5837 18.0107 53.6684 17.9945C53.7542 17.9783 53.8365 17.9482 53.9212 17.9239C54.0081 17.8984 54.0963 17.8764 54.1821 17.8417C54.254 17.8128 54.3212 17.7723 54.3896 17.7375C54.4835 17.6901 54.5775 17.6438 54.6656 17.5848C54.6807 17.5744 54.6969 17.5697 54.712 17.5593C54.7653 17.5223 54.8071 17.476 54.8569 17.4355C54.9346 17.373 55.0123 17.314 55.0842 17.2422C55.1572 17.1693 55.2187 17.0906 55.2825 17.0108C55.3219 16.9622 55.3671 16.9217 55.4031 16.8696C59.9879 10.2732 67.4903 6.33508 75.4715 6.33508C88.9049 6.33508 99.8337 17.2434 99.8337 30.6491C99.8337 51.5341 61.9418 85.664 53.179 93.2764Z"
        fill="#8895A4" />
</svg>