<svg width="159" height="35" viewBox="0 0 159 35" fill="none" xmlns="http://www.w3.org/2000/svg">
    <path fill-rule="evenodd" clip-rule="evenodd"
        d="M30 15C30 6.71632 23.2846 0 15 0C6.71632 0 0 6.71538 0 15C0 23.2837 6.71538 30 15 30C23.2837 30 30 23.2846 30 15ZM22.3514 5.12168C20.3004 3.59289 17.7556 2.6869 15 2.6869L14.9991 2.68785C8.19807 2.68785 2.68502 8.20089 2.68502 15.0019C2.68502 17.7575 3.59007 20.3023 5.11979 22.3532C5.29855 22.5922 5.62688 22.6552 5.8809 22.4991C6.13585 22.3419 6.22711 22.0202 6.09351 21.753C5.30607 20.1819 4.86296 18.4085 4.86296 16.5316C4.86296 10.0881 10.0862 4.86484 16.5297 4.86484C18.4066 4.86484 20.18 5.30795 21.7511 6.0954C22.0183 6.22899 22.3401 6.13679 22.4972 5.88278C22.6534 5.62876 22.5903 5.29949 22.3514 5.12168ZM16.8643 15.1863C17.4198 15.5759 17.8419 16.1273 18.0729 16.7653C18.2238 17.1488 18.4065 17.519 18.6192 17.8719C18.848 18.2544 18.9697 18.6914 18.9716 19.1371C18.9716 20.8393 17.1778 21.5442 14.9646 21.5442C12.7513 21.5442 10.9575 20.8569 10.9575 19.1371C10.9594 18.6914 11.0811 18.2544 11.3099 17.8719C11.525 17.5192 11.7101 17.149 11.8632 16.7653C12.0943 16.1273 12.5163 15.5759 13.0719 15.1863C13.6274 14.7966 14.2895 14.5876 14.9681 14.5876C15.6467 14.5876 16.3088 14.7966 16.8643 15.1863ZM8.08875 12.9732C7.42972 13.3538 7.34161 14.4463 7.89844 15.4085C8.45527 16.3706 9.44206 16.8428 10.1046 16.4657C10.7672 16.0886 10.8518 14.9926 10.2949 14.0305C9.7381 13.0684 8.75131 12.5926 8.08875 12.9732ZM19.6412 14.0305C20.198 13.0613 21.1848 12.5926 21.8474 12.9732C22.5064 13.3538 22.5945 14.4393 22.0377 15.4085C21.4809 16.3776 20.4941 16.8499 19.8315 16.4657C19.169 16.0816 19.0844 14.9997 19.6412 14.0305ZM12.9839 13.5371C13.939 13.301 14.4359 11.9864 14.0941 10.5979C13.7522 9.20931 12.6844 8.27539 11.7504 8.51151C10.8165 8.74764 10.302 10.0692 10.6403 11.4472C10.9786 12.8252 12.0324 13.7697 12.9839 13.5371ZM19.2958 11.4472C18.954 12.8322 17.9037 13.7697 16.9522 13.5371C15.9971 13.301 15.5002 11.9794 15.8421 10.5979C16.1839 9.21637 17.2306 8.27893 18.1857 8.51153C19.1408 8.74413 19.6377 10.0622 19.2958 11.4472Z"
        fill="white" />
    <path
        d="M58.6398 21.4544C59.1774 21.0608 59.6634 20.5845 60.0976 20.0252C60.5318 19.4453 60.8937 19.1553 61.1832 19.1553C61.4933 19.1553 61.6484 19.611 61.6484 20.5223C61.6484 21.4129 61.39 22.2621 60.873 23.0699C60.3768 23.857 59.7151 24.5197 58.888 25.0583C57.1924 26.1767 55.1866 26.7359 52.8707 26.7359C50.0586 26.7359 47.8771 26.0317 46.3262 24.6233C44.7754 23.2149 44 21.2576 44 18.7515C44 15.6654 44.7444 12.7346 46.2332 9.95922C46.7295 9.0479 47.2878 8.20906 47.9081 7.44272C47.4325 6.88349 47.05 6.30356 46.7605 5.70291C46.4917 5.08155 46.3573 4.61553 46.3573 4.30485C46.3573 3.74563 46.564 3.46602 46.9776 3.46602C47.2671 3.48673 47.5979 3.6835 47.9701 4.05631L48.9316 4.98835C49.1798 5.23689 49.4382 5.44401 49.707 5.60971C51.7541 3.8699 53.9563 3 56.3136 3C58.6915 3 60.232 3.66278 60.935 4.98835C61.1832 5.48544 61.3072 6.09644 61.3072 6.82136C61.3072 7.91909 60.8317 8.84078 59.8805 9.58641C58.9293 10.332 57.6473 10.7049 56.0344 10.7049C54.4422 10.7049 52.788 10.3735 51.0718 9.71068C49.6037 12.2168 48.8696 14.8369 48.8696 17.5709C48.8696 21.3612 50.3791 23.2563 53.398 23.2563C55.259 23.2563 57.0063 22.6557 58.6398 21.4544ZM52.5606 7.78447C53.6151 8.13657 54.7628 8.31262 56.0034 8.31262C57.2441 8.31262 57.8644 7.97087 57.8644 7.28738C57.8644 6.47961 57.3578 6.07573 56.3446 6.07573C54.9592 6.07573 53.6978 6.64531 52.5606 7.78447Z"
        fill="white" />
    <path
        d="M79.1364 19.1553C79.5086 19.1553 79.6947 19.6317 79.6947 20.5845C79.6947 21.1023 79.4776 21.734 79.0434 22.4796C78.6092 23.2045 78.0405 23.8777 77.3375 24.499C76.6551 25.0997 75.89 25.5968 75.0423 25.9903C74.1945 26.3838 73.3674 26.5806 72.5609 26.5806C71.465 26.5806 70.731 25.6175 70.3588 23.6913C69.8211 24.5819 69.1181 25.3172 68.2496 25.8971C67.3812 26.4563 66.2129 26.7359 64.7448 26.7359C63.2973 26.7359 62.129 26.2803 61.2399 25.3689C60.3507 24.4576 59.9165 23.3495 59.9372 22.0447C59.9372 18.5236 61.1055 15.7482 63.4421 13.7184C64.4346 12.8693 65.3548 12.31 66.2025 12.0408C67.071 11.7715 67.9808 11.6369 68.932 11.6369C69.8832 11.6369 70.6586 11.8026 71.2582 12.134C71.5477 11.5333 71.8786 11.233 72.2508 11.233C72.9745 11.233 73.6569 11.554 74.2979 12.1961C74.9595 12.8175 75.2904 13.4078 75.2904 13.967C75.0009 14.6505 74.577 15.4686 74.0187 16.4214C73.8533 17.3741 73.7706 18.71 73.7706 20.4291C73.7706 22.1482 73.9877 23.0078 74.4219 23.0078C74.9595 23.0078 76.2622 21.9307 78.33 19.7767C78.7022 19.3625 78.971 19.1553 79.1364 19.1553ZM64.4966 21.0194C64.4966 22.6142 65.0859 23.4117 66.2646 23.4117C67.5259 23.3909 68.5701 22.7178 69.3972 21.3922C69.6867 20.9366 69.9245 20.3773 70.1106 19.7146C70.1106 17.3948 70.3174 15.4065 70.731 13.7495C69.0561 14.0809 67.5983 14.8887 66.3576 16.1728C65.117 17.457 64.4966 19.0725 64.4966 21.0194Z"
        fill="white" />
    <path
        d="M79.5096 24.8097C79.2822 24.2505 79.1167 23.6084 79.0134 22.8835C78.91 22.1379 78.8583 21.1023 78.8583 19.7767C78.8583 18.4511 79.1064 16.6595 79.6027 14.4019H78.2069C77.9588 14.4019 77.8347 14.2984 77.8347 14.0913C77.8347 13.5942 77.8761 13.1903 77.9588 12.8796C78.0622 12.5482 78.2896 12.1754 78.6412 11.7612H79.3855C79.675 11.7612 79.9852 11.7508 80.316 11.7301C81.3086 8.54045 82.3218 6.94563 83.3557 6.94563C84.1828 6.96634 84.7618 7.4945 85.0926 8.5301C85.1753 8.82007 85.2684 9.13074 85.3717 9.46214L84.1001 11.699C85.5475 11.7405 86.4573 11.7612 86.8295 11.7612C87.2224 11.7612 87.4292 11.8026 87.4499 11.8854C87.4912 11.9476 87.5119 12.0511 87.5119 12.1961C87.5119 12.5689 87.4188 13.035 87.2327 13.5942C87.0673 14.1534 86.8709 14.4227 86.6434 14.4019L83.5418 14.2466C83.1075 16.7735 82.8904 18.8654 82.8904 20.5223C82.8904 22.1793 83.1282 23.0078 83.6038 23.0078C83.9967 23.0078 84.7101 22.6867 85.7439 22.0447C86.7778 21.3819 87.5222 20.7502 87.9771 20.1495C88.432 19.5489 88.8042 19.2485 89.0937 19.2485C89.3832 19.2485 89.528 19.6006 89.528 20.3049C89.528 21.0091 89.2798 21.734 88.7836 22.4796C88.2873 23.2045 87.6566 23.8777 86.8916 24.499C86.1472 25.0997 85.3097 25.5968 84.3792 25.9903C83.4694 26.3838 82.6733 26.5806 81.9909 26.5806C81.3086 26.5806 80.7813 26.4252 80.4091 26.1146C80.0576 25.7832 79.7577 25.3482 79.5096 24.8097Z"
        fill="white" />
    <path
        d="M92.3003 19.932C92.3003 21.734 93.0654 22.635 94.5955 22.635C96.2704 22.635 97.3974 22.055 97.9763 20.8951C98.1831 20.4809 98.2865 19.9528 98.2865 19.3107C98.2865 18.6479 98.1314 18.0369 97.8213 17.4777C97.3043 16.5871 96.4152 15.6032 95.1538 14.5262C93.0654 12.745 92.0212 10.9016 92.0212 8.99612C92.0212 7.0699 92.6208 5.589 93.8201 4.5534C95.0194 3.5178 96.3945 3 97.9453 3C99.4962 3 100.726 3.39353 101.636 4.18058C102.546 4.96764 103.001 6.14822 103.001 7.72233C103.001 8.75793 102.65 9.6589 101.946 10.4252C101.264 11.1916 100.354 11.668 99.217 11.8544C99.734 12.2893 100.251 12.7346 100.768 13.1903C101.264 13.646 101.719 14.143 102.133 14.6816C103.042 15.9036 103.497 17.3638 103.497 19.0621C103.497 20.2427 103.218 21.3094 102.66 22.2621C102.122 23.2149 101.409 24.0227 100.52 24.6854C99.6512 25.3275 98.6691 25.8246 97.5731 26.1767C96.4772 26.5288 95.4537 26.7049 94.5025 26.7049C92.4761 26.7049 90.9046 26.2388 89.788 25.3068C88.4853 24.2505 87.8339 22.7282 87.8339 20.7398C87.8339 19.435 88.2578 18.1715 89.1056 16.9495C89.9534 15.7275 90.8529 15.1165 91.8041 15.1165C92.5484 15.1165 92.9206 15.3443 92.9206 15.8C92.9206 16.4628 92.8173 17.1256 92.6105 17.7883C92.4037 18.4304 92.3003 19.145 92.3003 19.932ZM98.3175 11.1087C99.4962 9.92815 100.085 8.69579 100.085 7.41165C100.085 7.01812 99.8787 6.68673 99.4651 6.41748C99.0102 6.16893 98.5346 6.04466 98.0384 6.04466C96.9218 6.04466 96.1154 6.40712 95.6191 7.13204C95.8672 8.02265 96.2291 8.77864 96.7047 9.4C97.2009 10.0214 97.7386 10.5909 98.3175 11.1087Z"
        fill="white" />
    <path
        d="M109.803 10.9845C110.548 10.9845 111.251 11.699 111.912 13.1282C112.884 12.1133 114.084 11.6058 115.51 11.6058C116.958 11.6058 118.043 11.9269 118.767 12.5689C119.491 13.1903 119.853 14.0809 119.853 15.2408C119.853 16.3799 119.698 17.5398 119.387 18.7204C119.098 19.901 118.881 20.7502 118.736 21.268C118.612 21.765 118.55 22.1793 118.55 22.5107C118.55 22.8421 118.664 23.0078 118.891 23.0078C119.201 23.0078 119.584 22.811 120.039 22.4175C120.494 22.0239 120.949 21.5994 121.404 21.1437C121.858 20.6673 122.272 20.2324 122.644 19.8388C123.037 19.4453 123.306 19.2485 123.451 19.2485C123.74 19.2485 123.885 19.6006 123.885 20.3049C123.885 21.7547 123.172 23.1528 121.745 24.499C119.346 25.9074 117.816 26.6117 117.154 26.6117C117.092 26.6117 117.051 26.6013 117.03 26.5806C115.376 26.5806 114.549 25.255 114.549 22.6039C114.549 21.4647 114.652 20.4188 114.859 19.466C115.087 18.5133 115.252 17.8194 115.355 17.3845C115.459 16.9495 115.51 16.5042 115.51 16.0485C115.51 15.3029 115.076 14.9301 114.208 14.9301C113.36 14.9301 112.543 15.5722 111.757 16.8563C110.992 18.1197 110.475 19.435 110.207 20.8019V21.0194C110.207 21.7236 110.31 22.4485 110.517 23.1942C110.744 23.9398 110.858 24.4576 110.858 24.7476C110.858 25.4518 109.979 26.1456 108.222 26.8291C107.953 26.9327 107.715 26.9845 107.508 26.9845C106.991 26.9845 106.629 26.7152 106.423 26.1767C106.236 25.6382 106.143 24.7994 106.143 23.6602C106.143 20.7191 106.257 18.5961 106.485 17.2913C106.795 15.3443 107.498 13.532 108.594 11.8544C108.966 11.2744 109.369 10.9845 109.803 10.9845Z"
        fill="white" />
    <path
        d="M141.382 19.1553C141.754 19.1553 141.94 19.6317 141.94 20.5845C141.94 21.1023 141.723 21.734 141.289 22.4796C140.854 23.2045 140.286 23.8777 139.583 24.499C138.9 25.0997 138.135 25.5968 137.287 25.9903C136.44 26.3838 135.613 26.5806 134.806 26.5806C133.71 26.5806 132.976 25.6175 132.604 23.6913C132.066 24.5819 131.363 25.3172 130.495 25.8971C129.626 26.4563 128.458 26.7359 126.99 26.7359C125.542 26.7359 124.374 26.2803 123.485 25.3689C122.596 24.4576 122.162 23.3495 122.182 22.0447C122.182 18.5236 123.351 15.7482 125.687 13.7184C126.68 12.8693 127.6 12.31 128.448 12.0408C129.316 11.7715 130.226 11.6369 131.177 11.6369C132.128 11.6369 132.904 11.8026 133.503 12.134C133.793 11.5333 134.124 11.233 134.496 11.233C135.22 11.233 135.902 11.554 136.543 12.1961C137.205 12.8175 137.536 13.4078 137.536 13.967C137.246 14.6505 136.822 15.4686 136.264 16.4214C136.098 17.3741 136.016 18.71 136.016 20.4291C136.016 22.1482 136.233 23.0078 136.667 23.0078C137.205 23.0078 138.507 21.9307 140.575 19.7767C140.947 19.3625 141.216 19.1553 141.382 19.1553ZM126.742 21.0194C126.742 22.6142 127.331 23.4117 128.51 23.4117C129.771 23.3909 130.815 22.7178 131.642 21.3922C131.932 20.9366 132.17 20.3773 132.356 19.7146C132.356 17.3948 132.563 15.4065 132.976 13.7495C131.301 14.0809 129.843 14.8887 128.603 16.1728C127.362 17.457 126.742 19.0725 126.742 21.0194Z"
        fill="white" />
    <path
        d="M146.252 13.4699C147.327 12.2479 148.703 11.6369 150.377 11.6369C152.776 11.6369 154.296 12.6104 154.937 14.5573C155.123 15.1372 155.216 15.7793 155.216 16.4835C155.216 18.0576 154.699 19.611 153.665 21.1437C152.652 22.6764 151.422 23.712 149.974 24.2505H150.346C151.856 24.2505 153.386 23.6913 154.937 22.5728C155.929 21.8686 156.705 21.1437 157.263 20.3981C157.842 19.6317 158.276 19.2485 158.566 19.2485C158.855 19.2485 159 19.5799 159 20.2427C159 21.4026 158.504 22.5728 157.511 23.7534C156.022 25.4518 154.12 26.446 151.804 26.7359C150.129 26.9223 148.94 26.9534 148.237 26.8291C147.534 26.7049 146.997 26.5495 146.624 26.3631C145.818 25.9489 145.415 25.3275 145.415 24.499C145.415 24.0434 145.508 23.6291 145.694 23.2563C147.327 23.2563 148.568 22.635 149.416 21.3922C150.264 20.1495 150.688 18.5961 150.688 16.732C150.688 16.2764 150.522 15.8725 150.191 15.5204C149.86 15.1476 149.416 14.9612 148.858 14.9612C148.32 14.9612 147.731 15.1994 147.09 15.6757C146.449 16.1521 145.932 16.7528 145.539 17.4777C145.167 18.1819 144.825 18.8861 144.515 19.5903C144.205 20.2738 143.957 21.1437 143.771 22.2C143.44 24.1055 143.057 26.5081 142.623 29.4078C142.21 32.3282 141.951 33.8919 141.848 34.099C141.744 34.3269 141.589 34.534 141.383 34.7204C141.176 34.9068 140.959 35 140.731 35C140.318 35 139.977 34.8757 139.708 34.6272C138.963 33.9851 138.529 33.488 138.405 33.1359C138.281 32.8045 138.219 32.3696 138.219 31.8311C138.219 29.8013 138.56 26.9534 139.242 23.2874C139.925 19.6214 141.103 15.8104 142.778 11.8544C143.026 11.2744 143.461 10.9845 144.081 10.9845C144.722 10.9845 145.332 11.5437 145.911 12.6621C146.076 12.9521 146.19 13.2214 146.252 13.4699Z"
        fill="white" />
</svg>